<mxfile host="app.diagrams.net" modified="2021-09-09T21:07:02.631Z" agent="5.0 (Windows NT 10.0; Win64; x64) AppleWebKit/537.36 (KHTML, like Gecko) Chrome/92.0.4515.159 Safari/537.36" etag="ijwUtEiJAoOcHOpGumes" version="15.1.4" type="github">
  <diagram id="obAVTf1uiLFVrY0XSVBx" name="Page-1">
    <mxGraphModel dx="672" dy="408" grid="1" gridSize="10" guides="1" tooltips="1" connect="1" arrows="1" fold="1" page="1" pageScale="1" pageWidth="827" pageHeight="1169" math="0" shadow="0">
      <root>
        <mxCell id="0" />
        <mxCell id="1" parent="0" />
        <mxCell id="zY8dcGNMZM8oDJf9V6YR-1" value="" style="html=1;points=[];perimeter=orthogonalPerimeter;" parent="1" vertex="1">
          <mxGeometry x="345" y="570" width="30" height="670" as="geometry" />
        </mxCell>
        <mxCell id="zY8dcGNMZM8oDJf9V6YR-2" value="" style="html=1;points=[];perimeter=orthogonalPerimeter;" parent="1" vertex="1">
          <mxGeometry x="585" y="590" width="30" height="590" as="geometry" />
        </mxCell>
        <mxCell id="zY8dcGNMZM8oDJf9V6YR-3" value="&lt;span style=&quot;font-size: 28px ; text-align: justify&quot;&gt;&lt;font style=&quot;vertical-align: inherit&quot;&gt;&lt;font style=&quot;vertical-align: inherit&quot;&gt;повар&lt;/font&gt;&lt;/font&gt;&lt;/span&gt;" style="whiteSpace=wrap;html=1;align=center;" parent="1" vertex="1">
          <mxGeometry x="40" y="160" width="160" height="80" as="geometry" />
        </mxCell>
        <mxCell id="zY8dcGNMZM8oDJf9V6YR-4" value="&lt;span style=&quot;font-size: 28px ; text-align: justify&quot;&gt;&lt;font style=&quot;vertical-align: inherit&quot;&gt;&lt;font style=&quot;vertical-align: inherit&quot;&gt;печька&lt;/font&gt;&lt;/font&gt;&lt;/span&gt;" style="whiteSpace=wrap;html=1;align=center;" parent="1" vertex="1">
          <mxGeometry x="280" y="160" width="160" height="80" as="geometry" />
        </mxCell>
        <mxCell id="zY8dcGNMZM8oDJf9V6YR-5" value="&lt;span style=&quot;font-size: 26px ; text-align: justify&quot;&gt;&lt;font style=&quot;vertical-align: inherit&quot;&gt;&lt;font style=&quot;vertical-align: inherit&quot;&gt;сковородка&lt;/font&gt;&lt;/font&gt;&lt;/span&gt;" style="whiteSpace=wrap;html=1;align=center;" parent="1" vertex="1">
          <mxGeometry x="520" y="160" width="160" height="80" as="geometry" />
        </mxCell>
        <mxCell id="zY8dcGNMZM8oDJf9V6YR-6" value="&lt;span style=&quot;font-size: 23px ; text-align: justify&quot;&gt;&lt;font style=&quot;vertical-align: inherit&quot;&gt;&lt;font style=&quot;vertical-align: inherit&quot;&gt;холодильник&lt;/font&gt;&lt;/font&gt;&lt;/span&gt;" style="whiteSpace=wrap;html=1;align=center;" parent="1" vertex="1">
          <mxGeometry x="760" y="160" width="160" height="80" as="geometry" />
        </mxCell>
        <mxCell id="zY8dcGNMZM8oDJf9V6YR-7" value="&lt;span style=&quot;font-size: 28px ; text-align: justify&quot;&gt;&lt;font style=&quot;vertical-align: inherit&quot;&gt;&lt;font style=&quot;vertical-align: inherit&quot;&gt;масло&lt;/font&gt;&lt;/font&gt;&lt;/span&gt;" style="whiteSpace=wrap;html=1;align=center;" parent="1" vertex="1">
          <mxGeometry x="1000" y="160" width="160" height="80" as="geometry" />
        </mxCell>
        <mxCell id="zY8dcGNMZM8oDJf9V6YR-8" value="&lt;span style=&quot;font-size: 28px ; text-align: justify&quot;&gt;яйцо&lt;/span&gt;" style="whiteSpace=wrap;html=1;align=center;" parent="1" vertex="1">
          <mxGeometry x="1240.5" y="160" width="160" height="80" as="geometry" />
        </mxCell>
        <mxCell id="zY8dcGNMZM8oDJf9V6YR-9" value="" style="html=1;points=[];perimeter=orthogonalPerimeter;" parent="1" vertex="1">
          <mxGeometry x="105" y="320" width="30" height="970" as="geometry" />
        </mxCell>
        <mxCell id="zY8dcGNMZM8oDJf9V6YR-10" value="" style="html=1;points=[];perimeter=orthogonalPerimeter;" parent="1" vertex="1">
          <mxGeometry x="825" y="360" width="30" height="160" as="geometry" />
        </mxCell>
        <mxCell id="zY8dcGNMZM8oDJf9V6YR-11" value="" style="html=1;points=[];perimeter=orthogonalPerimeter;" parent="1" vertex="1">
          <mxGeometry x="1065" y="420" width="30" height="30" as="geometry" />
        </mxCell>
        <mxCell id="zY8dcGNMZM8oDJf9V6YR-12" value="" style="html=1;points=[];perimeter=orthogonalPerimeter;" parent="1" vertex="1">
          <mxGeometry x="1305.5" y="460" width="30" height="40" as="geometry" />
        </mxCell>
        <mxCell id="zY8dcGNMZM8oDJf9V6YR-13" value="&lt;span style=&quot;font-size: 16px&quot;&gt;&lt;font style=&quot;vertical-align: inherit&quot;&gt;&lt;font style=&quot;vertical-align: inherit&quot;&gt;завершено&lt;/font&gt;&lt;/font&gt;&lt;/span&gt;" style="html=1;verticalAlign=bottom;endArrow=open;dashed=1;endSize=8;strokeWidth=3;entryX=1.017;entryY=0.895;entryDx=0;entryDy=0;entryPerimeter=0;exitX=0.017;exitY=0.979;exitDx=0;exitDy=0;exitPerimeter=0;" parent="1" source="zY8dcGNMZM8oDJf9V6YR-2" target="zY8dcGNMZM8oDJf9V6YR-1" edge="1">
          <mxGeometry relative="1" as="geometry">
            <mxPoint x="580" y="1080" as="sourcePoint" />
            <mxPoint x="380" y="1080" as="targetPoint" />
            <Array as="points" />
          </mxGeometry>
        </mxCell>
        <mxCell id="zY8dcGNMZM8oDJf9V6YR-14" value="&lt;font style=&quot;vertical-align: inherit&quot;&gt;&lt;font style=&quot;vertical-align: inherit ; font-size: 18px&quot;&gt;открыть&lt;/font&gt;&lt;/font&gt;" style="html=1;verticalAlign=bottom;endArrow=block;strokeWidth=3;entryX=-0.074;entryY=0.125;entryDx=0;entryDy=0;entryPerimeter=0;" parent="1" target="zY8dcGNMZM8oDJf9V6YR-10" edge="1">
          <mxGeometry width="80" relative="1" as="geometry">
            <mxPoint x="135" y="380" as="sourcePoint" />
            <mxPoint x="819.9999999999998" y="380" as="targetPoint" />
            <Array as="points">
              <mxPoint x="475.21000000000004" y="380.5" />
            </Array>
          </mxGeometry>
        </mxCell>
        <mxCell id="zY8dcGNMZM8oDJf9V6YR-15" value="&lt;font style=&quot;vertical-align: inherit&quot;&gt;&lt;font style=&quot;vertical-align: inherit ; font-size: 20px&quot;&gt;&lt;font style=&quot;vertical-align: inherit&quot;&gt;&lt;font style=&quot;vertical-align: inherit&quot;&gt;&lt;font style=&quot;vertical-align: inherit&quot;&gt;&lt;font style=&quot;vertical-align: inherit&quot;&gt;взять масло&lt;/font&gt;&lt;/font&gt;&lt;/font&gt;&lt;/font&gt;&lt;/font&gt;&lt;/font&gt;" style="html=1;verticalAlign=bottom;endArrow=block;strokeWidth=3;exitX=1;exitY=0.103;exitDx=0;exitDy=0;exitPerimeter=0;entryX=-0.08;entryY=0.054;entryDx=0;entryDy=0;entryPerimeter=0;" parent="1" source="zY8dcGNMZM8oDJf9V6YR-9" target="zY8dcGNMZM8oDJf9V6YR-11" edge="1">
          <mxGeometry x="0.7642" width="80" relative="1" as="geometry">
            <mxPoint x="135" y="430.5" as="sourcePoint" />
            <mxPoint x="1070" y="420" as="targetPoint" />
            <mxPoint as="offset" />
          </mxGeometry>
        </mxCell>
        <mxCell id="zY8dcGNMZM8oDJf9V6YR-16" value="&lt;font style=&quot;vertical-align: inherit&quot;&gt;&lt;font style=&quot;vertical-align: inherit ; font-size: 20px&quot;&gt;&lt;font style=&quot;vertical-align: inherit&quot;&gt;&lt;font style=&quot;vertical-align: inherit&quot;&gt;&lt;font style=&quot;vertical-align: inherit&quot;&gt;&lt;font style=&quot;vertical-align: inherit&quot;&gt;&lt;font style=&quot;vertical-align: inherit&quot;&gt;&lt;font style=&quot;vertical-align: inherit&quot;&gt;&lt;font style=&quot;vertical-align: inherit&quot;&gt;&lt;font style=&quot;vertical-align: inherit&quot;&gt;&lt;font style=&quot;vertical-align: inherit&quot;&gt;&lt;font style=&quot;vertical-align: inherit&quot;&gt;взять 3 яйца&lt;/font&gt;&lt;/font&gt;&lt;/font&gt;&lt;/font&gt;&lt;/font&gt;&lt;/font&gt;&lt;/font&gt;&lt;/font&gt;&lt;/font&gt;&lt;/font&gt;&lt;/font&gt;&lt;/font&gt;" style="html=1;verticalAlign=bottom;endArrow=block;strokeWidth=3;entryX=-0.058;entryY=0.032;entryDx=0;entryDy=0;entryPerimeter=0;" parent="1" target="zY8dcGNMZM8oDJf9V6YR-12" edge="1">
          <mxGeometry x="0.8215" width="80" relative="1" as="geometry">
            <mxPoint x="137" y="461" as="sourcePoint" />
            <mxPoint x="1303.67" y="459.6500000000001" as="targetPoint" />
            <mxPoint as="offset" />
          </mxGeometry>
        </mxCell>
        <mxCell id="zY8dcGNMZM8oDJf9V6YR-17" value="&lt;font style=&quot;vertical-align: inherit&quot;&gt;&lt;font style=&quot;vertical-align: inherit ; font-size: 20px&quot;&gt;&lt;font style=&quot;vertical-align: inherit&quot;&gt;&lt;font style=&quot;vertical-align: inherit&quot;&gt;включить&lt;/font&gt;&lt;/font&gt;&lt;/font&gt;&lt;/font&gt;" style="html=1;verticalAlign=bottom;endArrow=block;strokeWidth=3;entryX=-0.011;entryY=0.016;entryDx=0;entryDy=0;entryPerimeter=0;" parent="1" target="zY8dcGNMZM8oDJf9V6YR-1" edge="1">
          <mxGeometry width="80" relative="1" as="geometry">
            <mxPoint x="134" y="581" as="sourcePoint" />
            <mxPoint x="343" y="570" as="targetPoint" />
          </mxGeometry>
        </mxCell>
        <mxCell id="zY8dcGNMZM8oDJf9V6YR-18" value="" style="html=1;points=[];perimeter=orthogonalPerimeter;" parent="1" vertex="1">
          <mxGeometry x="1065" y="600" width="30" height="200" as="geometry" />
        </mxCell>
        <mxCell id="zY8dcGNMZM8oDJf9V6YR-19" value="" style="html=1;points=[];perimeter=orthogonalPerimeter;" parent="1" vertex="1">
          <mxGeometry x="1305.5" y="840" width="30" height="200" as="geometry" />
        </mxCell>
        <mxCell id="zY8dcGNMZM8oDJf9V6YR-20" value="&lt;font style=&quot;vertical-align: inherit&quot;&gt;&lt;font style=&quot;vertical-align: inherit ; font-size: 20px&quot;&gt;&lt;font style=&quot;vertical-align: inherit&quot;&gt;&lt;font style=&quot;vertical-align: inherit&quot;&gt;&lt;font style=&quot;vertical-align: inherit&quot;&gt;&lt;font style=&quot;vertical-align: inherit&quot;&gt;выключить&lt;/font&gt;&lt;/font&gt;&lt;/font&gt;&lt;/font&gt;&lt;/font&gt;&lt;/font&gt;" style="html=1;verticalAlign=bottom;endArrow=block;strokeWidth=3;exitX=0.99;exitY=0.312;exitDx=0;exitDy=0;exitPerimeter=0;entryX=-0.011;entryY=0.016;entryDx=0;entryDy=0;entryPerimeter=0;" parent="1" edge="1">
          <mxGeometry width="80" relative="1" as="geometry">
            <mxPoint x="135.03" y="1110.16" as="sourcePoint" />
            <mxPoint x="345" y="1110" as="targetPoint" />
            <Array as="points">
              <mxPoint x="235.03" y="1110.16" />
            </Array>
          </mxGeometry>
        </mxCell>
        <mxCell id="zY8dcGNMZM8oDJf9V6YR-21" value="&lt;font style=&quot;vertical-align: inherit&quot;&gt;&lt;font style=&quot;vertical-align: inherit ; font-size: 20px&quot;&gt;&lt;font style=&quot;vertical-align: inherit&quot;&gt;&lt;font style=&quot;vertical-align: inherit&quot;&gt;&lt;font style=&quot;vertical-align: inherit&quot;&gt;&lt;font style=&quot;vertical-align: inherit&quot;&gt;нагревать&lt;/font&gt;&lt;/font&gt;&lt;/font&gt;&lt;/font&gt;&lt;/font&gt;&lt;/font&gt;" style="html=1;verticalAlign=bottom;endArrow=block;strokeWidth=3;entryX=-0.002;entryY=0.024;entryDx=0;entryDy=0;entryPerimeter=0;" parent="1" target="zY8dcGNMZM8oDJf9V6YR-2" edge="1">
          <mxGeometry width="80" relative="1" as="geometry">
            <mxPoint x="375" y="604" as="sourcePoint" />
            <mxPoint x="585" y="613" as="targetPoint" />
          </mxGeometry>
        </mxCell>
        <mxCell id="zY8dcGNMZM8oDJf9V6YR-22" value="&lt;span style=&quot;font-size: 16px&quot;&gt;&lt;font style=&quot;vertical-align: inherit&quot;&gt;&lt;font style=&quot;vertical-align: inherit&quot;&gt;&lt;font style=&quot;vertical-align: inherit&quot;&gt;&lt;font style=&quot;vertical-align: inherit&quot;&gt;продукты взяты закрыть&lt;/font&gt;&lt;/font&gt;&lt;/font&gt;&lt;/font&gt;&lt;/span&gt;" style="html=1;verticalAlign=bottom;endArrow=open;dashed=1;endSize=8;strokeWidth=3;exitX=0.033;exitY=0.875;exitDx=0;exitDy=0;exitPerimeter=0;entryX=1.067;entryY=0.184;entryDx=0;entryDy=0;entryPerimeter=0;" parent="1" source="zY8dcGNMZM8oDJf9V6YR-10" target="zY8dcGNMZM8oDJf9V6YR-9" edge="1">
          <mxGeometry x="0.0044" y="-1" relative="1" as="geometry">
            <mxPoint x="580" y="500" as="sourcePoint" />
            <mxPoint x="380" y="500" as="targetPoint" />
            <Array as="points" />
            <mxPoint as="offset" />
          </mxGeometry>
        </mxCell>
        <mxCell id="zY8dcGNMZM8oDJf9V6YR-23" value="&lt;span style=&quot;font-size: 20px&quot;&gt;&lt;font style=&quot;vertical-align: inherit&quot;&gt;&lt;font style=&quot;vertical-align: inherit&quot;&gt;нагревать&lt;/font&gt;&lt;/font&gt;&lt;/span&gt;" style="html=1;verticalAlign=bottom;endArrow=block;strokeWidth=3;exitX=1.1;exitY=0.122;exitDx=0;exitDy=0;exitPerimeter=0;entryX=-0.033;entryY=0.308;entryDx=0;entryDy=0;entryPerimeter=0;" parent="1" source="zY8dcGNMZM8oDJf9V6YR-2" target="zY8dcGNMZM8oDJf9V6YR-18" edge="1">
          <mxGeometry x="-0.4978" y="2" width="80" relative="1" as="geometry">
            <mxPoint x="760" y="680" as="sourcePoint" />
            <mxPoint x="1065" y="659" as="targetPoint" />
            <mxPoint as="offset" />
          </mxGeometry>
        </mxCell>
        <mxCell id="zY8dcGNMZM8oDJf9V6YR-24" value="&lt;font style=&quot;font-size: 20px&quot;&gt;хорошо разогрелось&lt;/font&gt;" style="html=1;verticalAlign=bottom;endArrow=open;dashed=1;endSize=8;strokeWidth=3;exitX=-0.048;exitY=0.929;exitDx=0;exitDy=0;exitPerimeter=0;entryX=1.033;entryY=0.481;entryDx=0;entryDy=0;entryPerimeter=0;startSize=8;" parent="1" source="zY8dcGNMZM8oDJf9V6YR-18" target="zY8dcGNMZM8oDJf9V6YR-9" edge="1">
          <mxGeometry x="-0.7551" y="1" relative="1" as="geometry">
            <mxPoint x="850" y="780" as="sourcePoint" />
            <mxPoint x="650.0000000000005" y="780" as="targetPoint" />
            <Array as="points" />
            <mxPoint as="offset" />
          </mxGeometry>
        </mxCell>
        <mxCell id="zY8dcGNMZM8oDJf9V6YR-25" value="&lt;font style=&quot;vertical-align: inherit&quot;&gt;&lt;font style=&quot;vertical-align: inherit ; font-size: 18px&quot;&gt;положить на сковородку&lt;/font&gt;&lt;/font&gt;" style="html=1;verticalAlign=bottom;endArrow=block;strokeWidth=3;exitX=1.067;exitY=0.319;exitDx=0;exitDy=0;exitPerimeter=0;entryX=0;entryY=0.16;entryDx=0;entryDy=0;entryPerimeter=0;" parent="1" source="zY8dcGNMZM8oDJf9V6YR-9" target="zY8dcGNMZM8oDJf9V6YR-18" edge="1">
          <mxGeometry x="0.7522" width="80" relative="1" as="geometry">
            <mxPoint x="260" y="640" as="sourcePoint" />
            <mxPoint x="710" y="640.0999999999999" as="targetPoint" />
            <mxPoint as="offset" />
          </mxGeometry>
        </mxCell>
        <mxCell id="zY8dcGNMZM8oDJf9V6YR-26" value="&lt;span style=&quot;font-size: 20px&quot;&gt;&lt;font style=&quot;vertical-align: inherit&quot;&gt;&lt;font style=&quot;vertical-align: inherit&quot;&gt;разбить на сковородку&lt;/font&gt;&lt;/font&gt;&lt;/span&gt;" style="html=1;verticalAlign=bottom;endArrow=block;strokeWidth=3;entryX=-0.017;entryY=0.105;entryDx=0;entryDy=0;entryPerimeter=0;" parent="1" target="zY8dcGNMZM8oDJf9V6YR-19" edge="1">
          <mxGeometry x="0.4088" width="80" relative="1" as="geometry">
            <mxPoint x="138" y="861" as="sourcePoint" />
            <mxPoint x="1340" y="860.0999999999999" as="targetPoint" />
            <mxPoint as="offset" />
          </mxGeometry>
        </mxCell>
        <mxCell id="zY8dcGNMZM8oDJf9V6YR-27" value="&lt;span style=&quot;font-size: 20px&quot;&gt;&lt;font style=&quot;vertical-align: inherit&quot;&gt;&lt;font style=&quot;vertical-align: inherit&quot;&gt;жарить&lt;/font&gt;&lt;/font&gt;&lt;/span&gt;" style="html=1;verticalAlign=bottom;endArrow=block;strokeWidth=3;exitX=1.044;exitY=0.526;exitDx=0;exitDy=0;exitPerimeter=0;entryX=-0.039;entryY=0.302;entryDx=0;entryDy=0;entryPerimeter=0;" parent="1" source="zY8dcGNMZM8oDJf9V6YR-2" target="zY8dcGNMZM8oDJf9V6YR-19" edge="1">
          <mxGeometry x="-0.6695" width="80" relative="1" as="geometry">
            <mxPoint x="800.5" y="900" as="sourcePoint" />
            <mxPoint x="1300" y="900" as="targetPoint" />
            <mxPoint as="offset" />
          </mxGeometry>
        </mxCell>
        <mxCell id="zY8dcGNMZM8oDJf9V6YR-28" value="&lt;font style=&quot;font-size: 15px&quot;&gt;достаточно приготовленно&lt;/font&gt;" style="html=1;verticalAlign=bottom;endArrow=open;dashed=1;endSize=8;strokeWidth=3;exitX=0.017;exitY=0.923;exitDx=0;exitDy=0;exitPerimeter=0;entryX=0.967;entryY=0.731;entryDx=0;entryDy=0;entryPerimeter=0;" parent="1" source="zY8dcGNMZM8oDJf9V6YR-19" target="zY8dcGNMZM8oDJf9V6YR-9" edge="1">
          <mxGeometry x="-0.8021" y="-5" relative="1" as="geometry">
            <mxPoint x="730" y="1020" as="sourcePoint" />
            <mxPoint x="150" y="1023" as="targetPoint" />
            <Array as="points" />
            <mxPoint as="offset" />
          </mxGeometry>
        </mxCell>
        <mxCell id="zY8dcGNMZM8oDJf9V6YR-29" value="&lt;font style=&quot;font-size: 33px&quot;&gt;Процесс приготовления яичницы&amp;nbsp;&lt;/font&gt;" style="text;strokeColor=none;fillColor=none;html=1;fontSize=24;fontStyle=1;verticalAlign=middle;align=center;" parent="1" vertex="1">
          <mxGeometry x="470" y="40" width="560" height="40" as="geometry" />
        </mxCell>
        <mxCell id="zY8dcGNMZM8oDJf9V6YR-30" value="" style="endArrow=none;dashed=1;html=1;startSize=8;strokeWidth=3;entryX=0.5;entryY=1;entryDx=0;entryDy=0;" parent="1" target="zY8dcGNMZM8oDJf9V6YR-3" edge="1">
          <mxGeometry width="50" height="50" relative="1" as="geometry">
            <mxPoint x="120" y="320" as="sourcePoint" />
            <mxPoint x="700" y="690" as="targetPoint" />
          </mxGeometry>
        </mxCell>
        <mxCell id="zY8dcGNMZM8oDJf9V6YR-31" value="" style="endArrow=none;dashed=1;html=1;startSize=8;strokeWidth=3;" parent="1" edge="1">
          <mxGeometry width="50" height="50" relative="1" as="geometry">
            <mxPoint x="360" y="570" as="sourcePoint" />
            <mxPoint x="360" y="240" as="targetPoint" />
          </mxGeometry>
        </mxCell>
        <mxCell id="zY8dcGNMZM8oDJf9V6YR-32" value="" style="endArrow=none;dashed=1;html=1;startSize=8;strokeWidth=3;entryX=0.472;entryY=1;entryDx=0;entryDy=0;entryPerimeter=0;" parent="1" target="zY8dcGNMZM8oDJf9V6YR-1" edge="1">
          <mxGeometry width="50" height="50" relative="1" as="geometry">
            <mxPoint x="360" y="1320" as="sourcePoint" />
            <mxPoint x="370" y="1200" as="targetPoint" />
          </mxGeometry>
        </mxCell>
        <mxCell id="zY8dcGNMZM8oDJf9V6YR-33" value="" style="endArrow=none;dashed=1;html=1;startSize=8;strokeWidth=3;entryX=0.518;entryY=1;entryDx=0;entryDy=0;entryPerimeter=0;" parent="1" target="zY8dcGNMZM8oDJf9V6YR-9" edge="1">
          <mxGeometry width="50" height="50" relative="1" as="geometry">
            <mxPoint x="120" y="1320" as="sourcePoint" />
            <mxPoint x="120" y="1290" as="targetPoint" />
          </mxGeometry>
        </mxCell>
        <mxCell id="zY8dcGNMZM8oDJf9V6YR-34" value="" style="endArrow=none;dashed=1;html=1;startSize=8;strokeWidth=3;entryX=0.472;entryY=1;entryDx=0;entryDy=0;entryPerimeter=0;" parent="1" target="zY8dcGNMZM8oDJf9V6YR-2" edge="1">
          <mxGeometry width="50" height="50" relative="1" as="geometry">
            <mxPoint x="600" y="1320" as="sourcePoint" />
            <mxPoint x="600" y="1180" as="targetPoint" />
          </mxGeometry>
        </mxCell>
        <mxCell id="zY8dcGNMZM8oDJf9V6YR-35" value="" style="endArrow=none;dashed=1;html=1;startSize=8;strokeWidth=3;entryX=0.495;entryY=1.017;entryDx=0;entryDy=0;entryPerimeter=0;" parent="1" target="zY8dcGNMZM8oDJf9V6YR-10" edge="1">
          <mxGeometry width="50" height="50" relative="1" as="geometry">
            <mxPoint x="840" y="1320" as="sourcePoint" />
            <mxPoint x="840" y="510" as="targetPoint" />
          </mxGeometry>
        </mxCell>
        <mxCell id="zY8dcGNMZM8oDJf9V6YR-36" value="" style="endArrow=none;dashed=1;html=1;startSize=8;strokeWidth=3;exitX=0.518;exitY=-0.005;exitDx=0;exitDy=0;exitPerimeter=0;entryX=0.5;entryY=1;entryDx=0;entryDy=0;" parent="1" source="zY8dcGNMZM8oDJf9V6YR-10" target="zY8dcGNMZM8oDJf9V6YR-6" edge="1">
          <mxGeometry width="50" height="50" relative="1" as="geometry">
            <mxPoint x="840" y="300" as="sourcePoint" />
            <mxPoint x="840" y="250" as="targetPoint" />
          </mxGeometry>
        </mxCell>
        <mxCell id="zY8dcGNMZM8oDJf9V6YR-37" value="" style="endArrow=none;dashed=1;html=1;startSize=8;strokeWidth=3;entryX=0.5;entryY=1;entryDx=0;entryDy=0;exitX=0.495;exitY=-0.001;exitDx=0;exitDy=0;exitPerimeter=0;" parent="1" source="zY8dcGNMZM8oDJf9V6YR-2" target="zY8dcGNMZM8oDJf9V6YR-5" edge="1">
          <mxGeometry width="50" height="50" relative="1" as="geometry">
            <mxPoint x="600" y="280" as="sourcePoint" />
            <mxPoint x="600" y="240" as="targetPoint" />
          </mxGeometry>
        </mxCell>
        <mxCell id="zY8dcGNMZM8oDJf9V6YR-38" value="" style="endArrow=none;dashed=1;html=1;startSize=8;strokeWidth=3;entryX=0.5;entryY=1;entryDx=0;entryDy=0;exitX=0.472;exitY=-0.025;exitDx=0;exitDy=0;exitPerimeter=0;" parent="1" source="zY8dcGNMZM8oDJf9V6YR-11" target="zY8dcGNMZM8oDJf9V6YR-7" edge="1">
          <mxGeometry width="50" height="50" relative="1" as="geometry">
            <mxPoint x="1080" y="340" as="sourcePoint" />
            <mxPoint x="1080" y="260" as="targetPoint" />
          </mxGeometry>
        </mxCell>
        <mxCell id="zY8dcGNMZM8oDJf9V6YR-39" value="" style="endArrow=none;dashed=1;html=1;startSize=8;strokeWidth=3;entryX=0.541;entryY=1.101;entryDx=0;entryDy=0;entryPerimeter=0;exitX=0.564;exitY=0;exitDx=0;exitDy=0;exitPerimeter=0;" parent="1" source="zY8dcGNMZM8oDJf9V6YR-18" target="zY8dcGNMZM8oDJf9V6YR-11" edge="1">
          <mxGeometry width="50" height="50" relative="1" as="geometry">
            <mxPoint x="1080" y="530" as="sourcePoint" />
            <mxPoint x="1080" y="450" as="targetPoint" />
          </mxGeometry>
        </mxCell>
        <mxCell id="zY8dcGNMZM8oDJf9V6YR-40" value="" style="endArrow=none;dashed=1;html=1;startSize=8;strokeWidth=3;entryX=0.495;entryY=1.01;entryDx=0;entryDy=0;entryPerimeter=0;" parent="1" target="zY8dcGNMZM8oDJf9V6YR-18" edge="1">
          <mxGeometry width="50" height="50" relative="1" as="geometry">
            <mxPoint x="1080" y="1320.6896551724137" as="sourcePoint" />
            <mxPoint x="1080" y="760" as="targetPoint" />
          </mxGeometry>
        </mxCell>
        <mxCell id="zY8dcGNMZM8oDJf9V6YR-41" value="" style="endArrow=none;dashed=1;html=1;startSize=8;strokeWidth=3;entryX=0.433;entryY=1.05;entryDx=0;entryDy=0;exitX=0.525;exitY=0;exitDx=0;exitDy=0;exitPerimeter=0;entryPerimeter=0;" parent="1" source="zY8dcGNMZM8oDJf9V6YR-19" target="zY8dcGNMZM8oDJf9V6YR-12" edge="1">
          <mxGeometry width="50" height="50" relative="1" as="geometry">
            <mxPoint x="1320" y="800" as="sourcePoint" />
            <mxPoint x="1320" y="720" as="targetPoint" />
          </mxGeometry>
        </mxCell>
        <mxCell id="zY8dcGNMZM8oDJf9V6YR-42" value="" style="endArrow=none;dashed=1;html=1;startSize=8;strokeWidth=3;entryX=0.502;entryY=1.01;entryDx=0;entryDy=0;entryPerimeter=0;" parent="1" target="zY8dcGNMZM8oDJf9V6YR-19" edge="1">
          <mxGeometry width="50" height="50" relative="1" as="geometry">
            <mxPoint x="1320" y="1320" as="sourcePoint" />
            <mxPoint x="1320" y="1040" as="targetPoint" />
          </mxGeometry>
        </mxCell>
        <mxCell id="zY8dcGNMZM8oDJf9V6YR-43" value="" style="endArrow=none;dashed=1;html=1;startSize=8;strokeWidth=3;entryX=0.5;entryY=1;entryDx=0;entryDy=0;exitX=0.502;exitY=-0.036;exitDx=0;exitDy=0;exitPerimeter=0;" parent="1" source="zY8dcGNMZM8oDJf9V6YR-12" target="zY8dcGNMZM8oDJf9V6YR-8" edge="1">
          <mxGeometry width="50" height="50" relative="1" as="geometry">
            <mxPoint x="1320" y="380" as="sourcePoint" />
            <mxPoint x="1320" y="300" as="targetPoint" />
          </mxGeometry>
        </mxCell>
        <mxCell id="zY8dcGNMZM8oDJf9V6YR-44" value="&lt;span style=&quot;font-size: 28px ; text-align: justify&quot;&gt;&lt;font style=&quot;vertical-align: inherit&quot;&gt;&lt;font style=&quot;vertical-align: inherit&quot;&gt;повар&lt;/font&gt;&lt;/font&gt;&lt;/span&gt;" style="whiteSpace=wrap;html=1;align=center;" parent="1" vertex="1">
          <mxGeometry x="90" y="1470" width="160" height="80" as="geometry" />
        </mxCell>
        <mxCell id="zY8dcGNMZM8oDJf9V6YR-45" value="&lt;span style=&quot;font-size: 28px ; text-align: justify&quot;&gt;&lt;font style=&quot;vertical-align: inherit&quot;&gt;&lt;font style=&quot;vertical-align: inherit&quot;&gt;печька&lt;/font&gt;&lt;/font&gt;&lt;/span&gt;" style="whiteSpace=wrap;html=1;align=center;" parent="1" vertex="1">
          <mxGeometry x="330" y="1470" width="160" height="80" as="geometry" />
        </mxCell>
        <mxCell id="zY8dcGNMZM8oDJf9V6YR-46" value="&lt;span style=&quot;font-size: 26px ; text-align: justify&quot;&gt;&lt;font style=&quot;vertical-align: inherit&quot;&gt;&lt;font style=&quot;vertical-align: inherit&quot;&gt;сковородка&lt;/font&gt;&lt;/font&gt;&lt;/span&gt;" style="whiteSpace=wrap;html=1;align=center;" parent="1" vertex="1">
          <mxGeometry x="570" y="1470" width="160" height="80" as="geometry" />
        </mxCell>
        <mxCell id="zY8dcGNMZM8oDJf9V6YR-47" value="&lt;span style=&quot;font-size: 23px ; text-align: justify&quot;&gt;&lt;font style=&quot;vertical-align: inherit&quot;&gt;&lt;font style=&quot;vertical-align: inherit&quot;&gt;холодильник&lt;/font&gt;&lt;/font&gt;&lt;/span&gt;" style="whiteSpace=wrap;html=1;align=center;" parent="1" vertex="1">
          <mxGeometry x="810" y="1470" width="160" height="80" as="geometry" />
        </mxCell>
        <mxCell id="zY8dcGNMZM8oDJf9V6YR-48" value="&lt;span style=&quot;font-size: 28px ; text-align: justify&quot;&gt;&lt;font style=&quot;vertical-align: inherit&quot;&gt;&lt;font style=&quot;vertical-align: inherit&quot;&gt;масло&lt;/font&gt;&lt;/font&gt;&lt;/span&gt;" style="whiteSpace=wrap;html=1;align=center;" parent="1" vertex="1">
          <mxGeometry x="1050" y="1470" width="160" height="80" as="geometry" />
        </mxCell>
        <mxCell id="zY8dcGNMZM8oDJf9V6YR-49" value="&lt;span style=&quot;font-size: 28px ; text-align: justify&quot;&gt;яйцо&lt;/span&gt;" style="whiteSpace=wrap;html=1;align=center;" parent="1" vertex="1">
          <mxGeometry x="1290.5" y="1470" width="160" height="80" as="geometry" />
        </mxCell>
        <mxCell id="zY8dcGNMZM8oDJf9V6YR-50" value="Cook" style="swimlane;fontStyle=1;align=center;verticalAlign=top;childLayout=stackLayout;horizontal=1;startSize=26;horizontalStack=0;resizeParent=1;resizeParentMax=0;resizeLast=0;collapsible=1;marginBottom=0;" parent="1" vertex="1">
          <mxGeometry x="90" y="1920" width="160" height="86" as="geometry" />
        </mxCell>
        <mxCell id="zY8dcGNMZM8oDJf9V6YR-51" value="+ field: type" style="text;strokeColor=#6c8ebf;fillColor=#dae8fc;align=left;verticalAlign=top;spacingLeft=4;spacingRight=4;overflow=hidden;rotatable=0;points=[[0,0.5],[1,0.5]];portConstraint=eastwest;" parent="zY8dcGNMZM8oDJf9V6YR-50" vertex="1">
          <mxGeometry y="26" width="160" height="26" as="geometry" />
        </mxCell>
        <mxCell id="zY8dcGNMZM8oDJf9V6YR-52" value="" style="line;strokeWidth=1;fillColor=none;align=left;verticalAlign=middle;spacingTop=-1;spacingLeft=3;spacingRight=3;rotatable=0;labelPosition=right;points=[];portConstraint=eastwest;" parent="zY8dcGNMZM8oDJf9V6YR-50" vertex="1">
          <mxGeometry y="52" width="160" height="8" as="geometry" />
        </mxCell>
        <mxCell id="zY8dcGNMZM8oDJf9V6YR-53" value="+ method(type): type" style="text;strokeColor=#b85450;fillColor=#f8cecc;align=left;verticalAlign=top;spacingLeft=4;spacingRight=4;overflow=hidden;rotatable=0;points=[[0,0.5],[1,0.5]];portConstraint=eastwest;" parent="zY8dcGNMZM8oDJf9V6YR-50" vertex="1">
          <mxGeometry y="60" width="160" height="26" as="geometry" />
        </mxCell>
        <mxCell id="zY8dcGNMZM8oDJf9V6YR-54" value="Stove" style="swimlane;fontStyle=1;align=center;verticalAlign=top;childLayout=stackLayout;horizontal=1;startSize=26;horizontalStack=0;resizeParent=1;resizeParentMax=0;resizeLast=0;collapsible=1;marginBottom=0;" parent="1" vertex="1">
          <mxGeometry x="339" y="1834" width="160" height="86" as="geometry" />
        </mxCell>
        <mxCell id="zY8dcGNMZM8oDJf9V6YR-55" value="+ field: type" style="text;strokeColor=#6c8ebf;fillColor=#dae8fc;align=left;verticalAlign=top;spacingLeft=4;spacingRight=4;overflow=hidden;rotatable=0;points=[[0,0.5],[1,0.5]];portConstraint=eastwest;" parent="zY8dcGNMZM8oDJf9V6YR-54" vertex="1">
          <mxGeometry y="26" width="160" height="26" as="geometry" />
        </mxCell>
        <mxCell id="zY8dcGNMZM8oDJf9V6YR-56" value="" style="line;strokeWidth=1;fillColor=none;align=left;verticalAlign=middle;spacingTop=-1;spacingLeft=3;spacingRight=3;rotatable=0;labelPosition=right;points=[];portConstraint=eastwest;" parent="zY8dcGNMZM8oDJf9V6YR-54" vertex="1">
          <mxGeometry y="52" width="160" height="8" as="geometry" />
        </mxCell>
        <mxCell id="zY8dcGNMZM8oDJf9V6YR-57" value="+ method(type): type" style="text;strokeColor=#b85450;fillColor=#f8cecc;align=left;verticalAlign=top;spacingLeft=4;spacingRight=4;overflow=hidden;rotatable=0;points=[[0,0.5],[1,0.5]];portConstraint=eastwest;" parent="zY8dcGNMZM8oDJf9V6YR-54" vertex="1">
          <mxGeometry y="60" width="160" height="26" as="geometry" />
        </mxCell>
        <mxCell id="zY8dcGNMZM8oDJf9V6YR-58" value="FryingPan" style="swimlane;fontStyle=1;align=center;verticalAlign=top;childLayout=stackLayout;horizontal=1;startSize=26;horizontalStack=0;resizeParent=1;resizeParentMax=0;resizeLast=0;collapsible=1;marginBottom=0;" parent="1" vertex="1">
          <mxGeometry x="577.5" y="2032" width="160" height="86" as="geometry" />
        </mxCell>
        <mxCell id="zY8dcGNMZM8oDJf9V6YR-59" value="+ field: type" style="text;strokeColor=#6c8ebf;fillColor=#dae8fc;align=left;verticalAlign=top;spacingLeft=4;spacingRight=4;overflow=hidden;rotatable=0;points=[[0,0.5],[1,0.5]];portConstraint=eastwest;" parent="zY8dcGNMZM8oDJf9V6YR-58" vertex="1">
          <mxGeometry y="26" width="160" height="26" as="geometry" />
        </mxCell>
        <mxCell id="zY8dcGNMZM8oDJf9V6YR-60" value="" style="line;strokeWidth=1;fillColor=none;align=left;verticalAlign=middle;spacingTop=-1;spacingLeft=3;spacingRight=3;rotatable=0;labelPosition=right;points=[];portConstraint=eastwest;" parent="zY8dcGNMZM8oDJf9V6YR-58" vertex="1">
          <mxGeometry y="52" width="160" height="8" as="geometry" />
        </mxCell>
        <mxCell id="zY8dcGNMZM8oDJf9V6YR-61" value="+ method(type): type" style="text;strokeColor=#b85450;fillColor=#f8cecc;align=left;verticalAlign=top;spacingLeft=4;spacingRight=4;overflow=hidden;rotatable=0;points=[[0,0.5],[1,0.5]];portConstraint=eastwest;" parent="zY8dcGNMZM8oDJf9V6YR-58" vertex="1">
          <mxGeometry y="60" width="160" height="26" as="geometry" />
        </mxCell>
        <mxCell id="zY8dcGNMZM8oDJf9V6YR-62" value="Fridge" style="swimlane;fontStyle=1;align=center;verticalAlign=top;childLayout=stackLayout;horizontal=1;startSize=26;horizontalStack=0;resizeParent=1;resizeParentMax=0;resizeLast=0;collapsible=1;marginBottom=0;" parent="1" vertex="1">
          <mxGeometry x="817.5" y="1920" width="160" height="86" as="geometry" />
        </mxCell>
        <mxCell id="zY8dcGNMZM8oDJf9V6YR-63" value="+ field: type" style="text;strokeColor=#6c8ebf;fillColor=#dae8fc;align=left;verticalAlign=top;spacingLeft=4;spacingRight=4;overflow=hidden;rotatable=0;points=[[0,0.5],[1,0.5]];portConstraint=eastwest;" parent="zY8dcGNMZM8oDJf9V6YR-62" vertex="1">
          <mxGeometry y="26" width="160" height="26" as="geometry" />
        </mxCell>
        <mxCell id="zY8dcGNMZM8oDJf9V6YR-64" value="" style="line;strokeWidth=1;fillColor=none;align=left;verticalAlign=middle;spacingTop=-1;spacingLeft=3;spacingRight=3;rotatable=0;labelPosition=right;points=[];portConstraint=eastwest;" parent="zY8dcGNMZM8oDJf9V6YR-62" vertex="1">
          <mxGeometry y="52" width="160" height="8" as="geometry" />
        </mxCell>
        <mxCell id="zY8dcGNMZM8oDJf9V6YR-65" value="+ method(type): type" style="text;strokeColor=#b85450;fillColor=#f8cecc;align=left;verticalAlign=top;spacingLeft=4;spacingRight=4;overflow=hidden;rotatable=0;points=[[0,0.5],[1,0.5]];portConstraint=eastwest;" parent="zY8dcGNMZM8oDJf9V6YR-62" vertex="1">
          <mxGeometry y="60" width="160" height="26" as="geometry" />
        </mxCell>
        <mxCell id="zY8dcGNMZM8oDJf9V6YR-66" value="Butter" style="swimlane;fontStyle=1;align=center;verticalAlign=top;childLayout=stackLayout;horizontal=1;startSize=26;horizontalStack=0;resizeParent=1;resizeParentMax=0;resizeLast=0;collapsible=1;marginBottom=0;" parent="1" vertex="1">
          <mxGeometry x="1050" y="1920" width="160" height="112" as="geometry" />
        </mxCell>
        <mxCell id="zY8dcGNMZM8oDJf9V6YR-67" value="+ field: type" style="text;strokeColor=#6c8ebf;fillColor=#dae8fc;align=left;verticalAlign=top;spacingLeft=4;spacingRight=4;overflow=hidden;rotatable=0;points=[[0,0.5],[1,0.5]];portConstraint=eastwest;" parent="zY8dcGNMZM8oDJf9V6YR-66" vertex="1">
          <mxGeometry y="26" width="160" height="26" as="geometry" />
        </mxCell>
        <mxCell id="zY8dcGNMZM8oDJf9V6YR-68" value="" style="line;strokeWidth=1;fillColor=none;align=left;verticalAlign=middle;spacingTop=-1;spacingLeft=3;spacingRight=3;rotatable=0;labelPosition=right;points=[];portConstraint=eastwest;" parent="zY8dcGNMZM8oDJf9V6YR-66" vertex="1">
          <mxGeometry y="52" width="160" height="8" as="geometry" />
        </mxCell>
        <mxCell id="oMbsbCd0VZJmheOJr5XD-8" value="+ПриНагревеТает." style="text;strokeColor=#b85450;fillColor=#f8cecc;align=left;verticalAlign=top;spacingLeft=4;spacingRight=4;overflow=hidden;rotatable=0;points=[[0,0.5],[1,0.5]];portConstraint=eastwest;" vertex="1" parent="zY8dcGNMZM8oDJf9V6YR-66">
          <mxGeometry y="60" width="160" height="26" as="geometry" />
        </mxCell>
        <mxCell id="zY8dcGNMZM8oDJf9V6YR-69" value="+ПриОхлажд_Тверд." style="text;strokeColor=#b85450;fillColor=#f8cecc;align=left;verticalAlign=top;spacingLeft=4;spacingRight=4;overflow=hidden;rotatable=0;points=[[0,0.5],[1,0.5]];portConstraint=eastwest;" parent="zY8dcGNMZM8oDJf9V6YR-66" vertex="1">
          <mxGeometry y="86" width="160" height="26" as="geometry" />
        </mxCell>
        <mxCell id="zY8dcGNMZM8oDJf9V6YR-70" value="Egg" style="swimlane;fontStyle=1;align=center;verticalAlign=top;childLayout=stackLayout;horizontal=1;startSize=26;horizontalStack=0;resizeParent=1;resizeParentMax=0;resizeLast=0;collapsible=1;marginBottom=0;" parent="1" vertex="1">
          <mxGeometry x="1290.5" y="1920" width="199.5" height="86" as="geometry" />
        </mxCell>
        <mxCell id="zY8dcGNMZM8oDJf9V6YR-71" value="+ field: type" style="text;strokeColor=#6c8ebf;fillColor=#dae8fc;align=left;verticalAlign=top;spacingLeft=4;spacingRight=4;overflow=hidden;rotatable=0;points=[[0,0.5],[1,0.5]];portConstraint=eastwest;" parent="zY8dcGNMZM8oDJf9V6YR-70" vertex="1">
          <mxGeometry y="26" width="199.5" height="26" as="geometry" />
        </mxCell>
        <mxCell id="zY8dcGNMZM8oDJf9V6YR-72" value="" style="line;strokeWidth=1;fillColor=none;align=left;verticalAlign=middle;spacingTop=-1;spacingLeft=3;spacingRight=3;rotatable=0;labelPosition=right;points=[];portConstraint=eastwest;" parent="zY8dcGNMZM8oDJf9V6YR-70" vertex="1">
          <mxGeometry y="52" width="199.5" height="8" as="geometry" />
        </mxCell>
        <mxCell id="zY8dcGNMZM8oDJf9V6YR-73" value="+ПриНагревеБелокТрансформ." style="text;strokeColor=#b85450;fillColor=#f8cecc;align=left;verticalAlign=top;spacingLeft=4;spacingRight=4;overflow=hidden;rotatable=0;points=[[0,0.5],[1,0.5]];portConstraint=eastwest;" parent="zY8dcGNMZM8oDJf9V6YR-70" vertex="1">
          <mxGeometry y="60" width="199.5" height="26" as="geometry" />
        </mxCell>
        <mxCell id="zY8dcGNMZM8oDJf9V6YR-74" value="&lt;p style=&quot;margin: 0px ; margin-top: 4px ; text-align: center&quot;&gt;&lt;i&gt;&amp;lt;&amp;lt;Interface&amp;gt;&amp;gt;&lt;/i&gt;&lt;br&gt;&lt;b&gt;InstanceStove&lt;/b&gt;&lt;/p&gt;&lt;hr size=&quot;1&quot;&gt;&lt;p style=&quot;margin: 0px ; margin-left: 4px&quot;&gt;+ method1Вкл.(Type): Type&lt;br&gt;+ method2Вык.(Type): Type&lt;/p&gt;&lt;p style=&quot;margin: 0px ; margin-left: 4px&quot;&gt;+ method3Нагревать.(Type): Type&lt;br&gt;&lt;/p&gt;" style="verticalAlign=top;align=left;overflow=fill;fontSize=12;fontFamily=Helvetica;html=1;" parent="1" vertex="1">
          <mxGeometry x="318" y="1673" width="202" height="97" as="geometry" />
        </mxCell>
        <mxCell id="zY8dcGNMZM8oDJf9V6YR-75" value="&lt;p style=&quot;margin: 4px 0px 0px&quot;&gt;&lt;/p&gt;&lt;div style=&quot;text-align: center&quot;&gt;&lt;i&gt;&amp;lt;&amp;lt;Interface&amp;gt;&amp;gt;&lt;/i&gt;&lt;/div&gt;&lt;div style=&quot;text-align: center&quot;&gt;&lt;b&gt;Instance&lt;/b&gt;&lt;span style=&quot;font-weight: 700&quot;&gt;FryingPan&lt;/span&gt;&lt;/div&gt;&lt;hr size=&quot;1&quot;&gt;&lt;p style=&quot;margin: 0px ; margin-left: 4px&quot;&gt;&lt;/p&gt;&lt;p style=&quot;margin: 0px ; margin-left: 4px&quot;&gt;+ method1Нагреватся(Type): Type&lt;br&gt;+ method2Остывать(Type): Type&lt;/p&gt;" style="verticalAlign=top;align=left;overflow=fill;fontSize=12;fontFamily=Helvetica;html=1;" parent="1" vertex="1">
          <mxGeometry x="555" y="1673" width="205" height="97" as="geometry" />
        </mxCell>
        <mxCell id="zY8dcGNMZM8oDJf9V6YR-76" value="&lt;p style=&quot;margin: 4px 0px 0px&quot;&gt;&lt;/p&gt;&lt;div style=&quot;text-align: center&quot;&gt;&lt;i&gt;&amp;lt;&amp;lt;Interface&amp;gt;&amp;gt;&lt;/i&gt;&lt;/div&gt;&lt;div style=&quot;text-align: center&quot;&gt;&lt;b&gt;Instance&lt;/b&gt;&lt;span style=&quot;font-weight: 700&quot;&gt;Fridge&lt;/span&gt;&lt;/div&gt;&lt;hr size=&quot;1&quot;&gt;&lt;p style=&quot;margin: 0px ; margin-left: 4px&quot;&gt;+ method1Откр.(Type): Type&lt;br&gt;+ method2Закр.(Type): Type&lt;/p&gt;&lt;p style=&quot;margin: 0px ; margin-left: 4px&quot;&gt;+ method3_Охлаждать((Type): Type&lt;br&gt;&lt;/p&gt;" style="verticalAlign=top;align=left;overflow=fill;fontSize=12;fontFamily=Helvetica;html=1;" parent="1" vertex="1">
          <mxGeometry x="795" y="1669" width="205" height="101" as="geometry" />
        </mxCell>
        <mxCell id="zY8dcGNMZM8oDJf9V6YR-77" value="&lt;p style=&quot;margin: 0px ; margin-top: 4px ; text-align: center&quot;&gt;&lt;i&gt;&amp;lt;&amp;lt;Interface&amp;gt;&amp;gt;&lt;/i&gt;&lt;br&gt;&lt;b&gt;InstanceButter&lt;/b&gt;&lt;br&gt;&lt;/p&gt;&lt;hr size=&quot;1&quot;&gt;&lt;p style=&quot;margin: 0px ; margin-left: 4px&quot;&gt;+ field1Живое: Type&lt;br&gt;+ field2Искуств.: Type&lt;/p&gt;" style="verticalAlign=top;align=left;overflow=fill;fontSize=12;fontFamily=Helvetica;html=1;" parent="1" vertex="1">
          <mxGeometry x="1035" y="1669" width="190" height="101" as="geometry" />
        </mxCell>
        <mxCell id="zY8dcGNMZM8oDJf9V6YR-78" value="&lt;p style=&quot;margin: 0px ; margin-top: 4px ; text-align: center&quot;&gt;&lt;i&gt;&lt;font style=&quot;vertical-align: inherit&quot;&gt;&lt;font style=&quot;vertical-align: inherit&quot;&gt;&amp;lt;&amp;lt;Interface&amp;gt;&amp;gt; &lt;/font&gt;&lt;/font&gt;&lt;/i&gt;&lt;br&gt;&lt;b&gt;&lt;font style=&quot;vertical-align: inherit&quot;&gt;&lt;font style=&quot;vertical-align: inherit&quot;&gt;EmployeeCook&lt;/font&gt;&lt;/font&gt;&lt;/b&gt;&lt;/p&gt;&lt;hr size=&quot;1&quot;&gt;&lt;p style=&quot;margin: 0px ; margin-left: 4px&quot;&gt;&lt;font style=&quot;vertical-align: inherit&quot;&gt;&lt;font style=&quot;vertical-align: inherit&quot;&gt;+ method1Наблюдать (Тип): Тип &lt;/font&gt;&lt;/font&gt;&lt;br&gt;&lt;font style=&quot;vertical-align: inherit&quot;&gt;&lt;font style=&quot;vertical-align: inherit&quot;&gt;+ method2ИимерятьВремя (Тип): Тип&lt;/font&gt;&lt;/font&gt;&lt;/p&gt;" style="verticalAlign=top;align=left;overflow=fill;fontSize=12;fontFamily=Helvetica;html=1;" parent="1" vertex="1">
          <mxGeometry x="75" y="1673" width="215" height="97" as="geometry" />
        </mxCell>
        <mxCell id="zY8dcGNMZM8oDJf9V6YR-79" value="ЭкземплярПечьки" style="text;whiteSpace=wrap;html=1;" parent="1" vertex="1">
          <mxGeometry x="360" y="1570" width="90" height="30" as="geometry" />
        </mxCell>
        <mxCell id="zY8dcGNMZM8oDJf9V6YR-80" value="РаботникПовар" style="text;html=1;align=center;verticalAlign=middle;resizable=0;points=[];autosize=1;strokeColor=none;fillColor=none;" parent="1" vertex="1">
          <mxGeometry x="120" y="1570" width="100" height="20" as="geometry" />
        </mxCell>
        <mxCell id="zY8dcGNMZM8oDJf9V6YR-81" style="edgeStyle=orthogonalEdgeStyle;rounded=0;orthogonalLoop=1;jettySize=auto;html=1;exitX=0.5;exitY=1;exitDx=0;exitDy=0;startSize=8;strokeWidth=3;" parent="1" source="zY8dcGNMZM8oDJf9V6YR-74" target="zY8dcGNMZM8oDJf9V6YR-74" edge="1">
          <mxGeometry relative="1" as="geometry" />
        </mxCell>
        <mxCell id="zY8dcGNMZM8oDJf9V6YR-82" value="FoodTaster" style="swimlane;fontStyle=1;align=center;verticalAlign=top;childLayout=stackLayout;horizontal=1;startSize=26;horizontalStack=0;resizeParent=1;resizeParentMax=0;resizeLast=0;collapsible=1;marginBottom=0;" parent="1" vertex="1">
          <mxGeometry x="695" y="2210" width="160" height="86" as="geometry" />
        </mxCell>
        <mxCell id="zY8dcGNMZM8oDJf9V6YR-83" value="+ field: type" style="text;strokeColor=#6c8ebf;fillColor=#dae8fc;align=left;verticalAlign=top;spacingLeft=4;spacingRight=4;overflow=hidden;rotatable=0;points=[[0,0.5],[1,0.5]];portConstraint=eastwest;" parent="zY8dcGNMZM8oDJf9V6YR-82" vertex="1">
          <mxGeometry y="26" width="160" height="26" as="geometry" />
        </mxCell>
        <mxCell id="zY8dcGNMZM8oDJf9V6YR-84" value="" style="line;strokeWidth=1;fillColor=none;align=left;verticalAlign=middle;spacingTop=-1;spacingLeft=3;spacingRight=3;rotatable=0;labelPosition=right;points=[];portConstraint=eastwest;" parent="zY8dcGNMZM8oDJf9V6YR-82" vertex="1">
          <mxGeometry y="52" width="160" height="8" as="geometry" />
        </mxCell>
        <mxCell id="zY8dcGNMZM8oDJf9V6YR-85" value="+ method(type): type" style="text;strokeColor=#b85450;fillColor=#f8cecc;align=left;verticalAlign=top;spacingLeft=4;spacingRight=4;overflow=hidden;rotatable=0;points=[[0,0.5],[1,0.5]];portConstraint=eastwest;" parent="zY8dcGNMZM8oDJf9V6YR-82" vertex="1">
          <mxGeometry y="60" width="160" height="26" as="geometry" />
        </mxCell>
        <mxCell id="zY8dcGNMZM8oDJf9V6YR-86" value="ReadyFood" style="swimlane;fontStyle=1;align=center;verticalAlign=top;childLayout=stackLayout;horizontal=1;startSize=26;horizontalStack=0;resizeParent=1;resizeParentMax=0;resizeLast=0;collapsible=1;marginBottom=0;" parent="1" vertex="1">
          <mxGeometry x="395" y="2210" width="160" height="86" as="geometry" />
        </mxCell>
        <mxCell id="zY8dcGNMZM8oDJf9V6YR-87" value="+ field: type" style="text;strokeColor=#6c8ebf;fillColor=#dae8fc;align=left;verticalAlign=top;spacingLeft=4;spacingRight=4;overflow=hidden;rotatable=0;points=[[0,0.5],[1,0.5]];portConstraint=eastwest;" parent="zY8dcGNMZM8oDJf9V6YR-86" vertex="1">
          <mxGeometry y="26" width="160" height="26" as="geometry" />
        </mxCell>
        <mxCell id="zY8dcGNMZM8oDJf9V6YR-88" value="" style="line;strokeWidth=1;fillColor=none;align=left;verticalAlign=middle;spacingTop=-1;spacingLeft=3;spacingRight=3;rotatable=0;labelPosition=right;points=[];portConstraint=eastwest;" parent="zY8dcGNMZM8oDJf9V6YR-86" vertex="1">
          <mxGeometry y="52" width="160" height="8" as="geometry" />
        </mxCell>
        <mxCell id="zY8dcGNMZM8oDJf9V6YR-89" value="+ method(type): type" style="text;strokeColor=#b85450;fillColor=#f8cecc;align=left;verticalAlign=top;spacingLeft=4;spacingRight=4;overflow=hidden;rotatable=0;points=[[0,0.5],[1,0.5]];portConstraint=eastwest;" parent="zY8dcGNMZM8oDJf9V6YR-86" vertex="1">
          <mxGeometry y="60" width="160" height="26" as="geometry" />
        </mxCell>
        <mxCell id="oMbsbCd0VZJmheOJr5XD-1" value="Extends" style="endArrow=blockThin;endSize=16;endFill=1;html=1;exitX=0.5;exitY=0;exitDx=0;exitDy=0;entryX=0.44;entryY=1.003;entryDx=0;entryDy=0;entryPerimeter=0;" edge="1" parent="1" source="zY8dcGNMZM8oDJf9V6YR-50" target="zY8dcGNMZM8oDJf9V6YR-78">
          <mxGeometry width="160" relative="1" as="geometry">
            <mxPoint x="270" y="1840" as="sourcePoint" />
            <mxPoint x="430" y="1840" as="targetPoint" />
          </mxGeometry>
        </mxCell>
        <mxCell id="oMbsbCd0VZJmheOJr5XD-3" value="Extends" style="endArrow=blockThin;endSize=16;endFill=1;html=1;exitX=0.5;exitY=0;exitDx=0;exitDy=0;" edge="1" parent="1" source="zY8dcGNMZM8oDJf9V6YR-54">
          <mxGeometry width="160" relative="1" as="geometry">
            <mxPoint x="270" y="1840" as="sourcePoint" />
            <mxPoint x="419" y="1770" as="targetPoint" />
          </mxGeometry>
        </mxCell>
        <mxCell id="oMbsbCd0VZJmheOJr5XD-4" value="Extends" style="endArrow=blockThin;endSize=16;endFill=1;html=1;exitX=0.5;exitY=0;exitDx=0;exitDy=0;entryX=0.5;entryY=1;entryDx=0;entryDy=0;" edge="1" parent="1" source="zY8dcGNMZM8oDJf9V6YR-58" target="zY8dcGNMZM8oDJf9V6YR-75">
          <mxGeometry width="160" relative="1" as="geometry">
            <mxPoint x="530" y="1840" as="sourcePoint" />
            <mxPoint x="690" y="1840" as="targetPoint" />
          </mxGeometry>
        </mxCell>
        <mxCell id="oMbsbCd0VZJmheOJr5XD-5" value="Extends" style="endArrow=blockThin;endSize=16;endFill=1;html=1;exitX=0.5;exitY=0;exitDx=0;exitDy=0;" edge="1" parent="1" source="zY8dcGNMZM8oDJf9V6YR-62">
          <mxGeometry width="160" relative="1" as="geometry">
            <mxPoint x="855" y="1850" as="sourcePoint" />
            <mxPoint x="900" y="1770" as="targetPoint" />
          </mxGeometry>
        </mxCell>
        <mxCell id="oMbsbCd0VZJmheOJr5XD-6" value="Extends" style="endArrow=blockThin;endSize=16;endFill=1;html=1;exitX=0.5;exitY=0;exitDx=0;exitDy=0;entryX=0.5;entryY=1;entryDx=0;entryDy=0;" edge="1" parent="1" source="zY8dcGNMZM8oDJf9V6YR-66" target="zY8dcGNMZM8oDJf9V6YR-77">
          <mxGeometry width="160" relative="1" as="geometry">
            <mxPoint x="1065" y="1860" as="sourcePoint" />
            <mxPoint x="1225" y="1860" as="targetPoint" />
          </mxGeometry>
        </mxCell>
        <mxCell id="oMbsbCd0VZJmheOJr5XD-7" value="" style="endArrow=none;html=1;exitX=1;exitY=0.25;exitDx=0;exitDy=0;entryX=0;entryY=0.25;entryDx=0;entryDy=0;" edge="1" parent="1" source="zY8dcGNMZM8oDJf9V6YR-74" target="zY8dcGNMZM8oDJf9V6YR-75">
          <mxGeometry width="50" height="50" relative="1" as="geometry">
            <mxPoint x="570" y="1700" as="sourcePoint" />
            <mxPoint x="620" y="1650" as="targetPoint" />
          </mxGeometry>
        </mxCell>
        <mxCell id="oMbsbCd0VZJmheOJr5XD-10" value="" style="endArrow=none;html=1;strokeColor=#000000;entryX=-0.007;entryY=0.159;entryDx=0;entryDy=0;entryPerimeter=0;" edge="1" parent="1" target="zY8dcGNMZM8oDJf9V6YR-82">
          <mxGeometry width="50" height="50" relative="1" as="geometry">
            <mxPoint x="555" y="2224" as="sourcePoint" />
            <mxPoint x="780" y="2150" as="targetPoint" />
          </mxGeometry>
        </mxCell>
        <mxCell id="oMbsbCd0VZJmheOJr5XD-11" value="return" style="html=1;verticalAlign=bottom;endArrow=classic;dashed=1;endSize=8;strokeColor=#000000;endFill=1;entryX=-0.006;entryY=0.159;entryDx=0;entryDy=0;entryPerimeter=0;exitX=1.008;exitY=0.149;exitDx=0;exitDy=0;exitPerimeter=0;" edge="1" parent="1" source="zY8dcGNMZM8oDJf9V6YR-50" target="zY8dcGNMZM8oDJf9V6YR-54">
          <mxGeometry x="-0.1131" y="-65" relative="1" as="geometry">
            <mxPoint x="250" y="1900" as="sourcePoint" />
            <mxPoint x="250" y="1935" as="targetPoint" />
            <mxPoint as="offset" />
          </mxGeometry>
        </mxCell>
        <mxCell id="oMbsbCd0VZJmheOJr5XD-12" value="return" style="html=1;verticalAlign=bottom;endArrow=classic;dashed=1;endSize=8;strokeColor=#000000;endFill=1;exitX=1;exitY=0.5;exitDx=0;exitDy=0;entryX=-0.012;entryY=0.145;entryDx=0;entryDy=0;entryPerimeter=0;" edge="1" parent="1" source="zY8dcGNMZM8oDJf9V6YR-51" target="zY8dcGNMZM8oDJf9V6YR-58">
          <mxGeometry x="-0.1131" y="-65" relative="1" as="geometry">
            <mxPoint x="260" y="2020" as="sourcePoint" />
            <mxPoint x="360" y="2050" as="targetPoint" />
            <mxPoint as="offset" />
          </mxGeometry>
        </mxCell>
        <mxCell id="oMbsbCd0VZJmheOJr5XD-13" value="return" style="html=1;verticalAlign=bottom;endArrow=classic;dashed=1;endSize=8;strokeColor=#000000;endFill=1;exitX=1.008;exitY=0.103;exitDx=0;exitDy=0;entryX=-0.018;entryY=0.178;entryDx=0;entryDy=0;entryPerimeter=0;exitPerimeter=0;" edge="1" parent="1" source="zY8dcGNMZM8oDJf9V6YR-51" target="zY8dcGNMZM8oDJf9V6YR-62">
          <mxGeometry x="-0.1131" y="-65" relative="1" as="geometry">
            <mxPoint x="260.0000000000001" y="1969" as="sourcePoint" />
            <mxPoint x="585.5799999999999" y="2054.4700000000003" as="targetPoint" />
            <mxPoint as="offset" />
          </mxGeometry>
        </mxCell>
        <mxCell id="oMbsbCd0VZJmheOJr5XD-14" value="" style="endArrow=none;html=1;strokeColor=#000000;exitX=1.008;exitY=0.107;exitDx=0;exitDy=0;exitPerimeter=0;" edge="1" parent="1" source="zY8dcGNMZM8oDJf9V6YR-66">
          <mxGeometry width="50" height="50" relative="1" as="geometry">
            <mxPoint x="1120" y="1870" as="sourcePoint" />
            <mxPoint x="1290" y="1932" as="targetPoint" />
          </mxGeometry>
        </mxCell>
      </root>
    </mxGraphModel>
  </diagram>
</mxfile>
